<svg width="651" height="114" viewBox="0 0 651 114" fill="none" xmlns="http://www.w3.org/2000/svg">
<g filter="url(#filter0_d_2_14)">
<path d="M26.592 101H7.52V9.60799H59.872V25.48H26.592V49.032H57.568V64.904H26.592V101ZM115.274 29.832C116.213 29.832 117.322 29.8747 118.602 29.96C119.882 30.0453 120.906 30.1733 121.674 30.344L120.266 48.264C119.669 48.0933 118.773 47.9653 117.578 47.88C116.469 47.7093 115.487 47.624 114.634 47.624C112.159 47.624 109.77 47.9653 107.466 48.648C105.162 49.2453 103.071 50.2267 101.194 51.592C99.402 52.9573 97.9513 54.792 96.842 57.096C95.818 59.3147 95.306 62.088 95.306 65.416V101H76.234V31.112H90.698L93.514 42.888H94.41C95.7753 40.4987 97.482 38.3227 99.53 36.36C101.578 34.3973 103.925 32.8187 106.57 31.624C109.301 30.4293 112.202 29.832 115.274 29.832ZM160.659 29.832C167.144 29.832 172.691 31.0693 177.299 33.544C181.992 36.0187 185.619 39.6027 188.179 44.296C190.739 48.9893 192.019 54.7493 192.019 61.576V70.792H146.963C147.134 76.168 148.712 80.392 151.699 83.464C154.771 86.536 158.995 88.072 164.371 88.072C168.894 88.072 172.99 87.6453 176.659 86.792C180.328 85.8533 184.126 84.4453 188.051 82.568V97.288C184.638 98.9947 181.011 100.232 177.171 101C173.416 101.853 168.851 102.28 163.475 102.28C156.478 102.28 150.291 101 144.915 98.44C139.539 95.7947 135.315 91.8267 132.243 86.536C129.171 81.2453 127.635 74.5893 127.635 66.568C127.635 58.376 129 51.592 131.731 46.216C134.547 40.7547 138.43 36.6587 143.379 33.928C148.328 31.1973 154.088 29.832 160.659 29.832ZM160.787 43.4C157.118 43.4 154.046 44.5947 151.571 46.984C149.182 49.3733 147.774 53.0853 147.347 58.12H174.099C174.099 55.304 173.587 52.7867 172.563 50.568C171.624 48.3493 170.174 46.6 168.211 45.32C166.248 44.04 163.774 43.4 160.787 43.4ZM236.284 29.832C242.769 29.832 248.316 31.0693 252.924 33.544C257.617 36.0187 261.244 39.6027 263.804 44.296C266.364 48.9893 267.644 54.7493 267.644 61.576V70.792H222.588C222.759 76.168 224.337 80.392 227.324 83.464C230.396 86.536 234.62 88.072 239.996 88.072C244.519 88.072 248.615 87.6453 252.284 86.792C255.953 85.8533 259.751 84.4453 263.676 82.568V97.288C260.263 98.9947 256.636 100.232 252.796 101C249.041 101.853 244.476 102.28 239.1 102.28C232.103 102.28 225.916 101 220.54 98.44C215.164 95.7947 210.94 91.8267 207.868 86.536C204.796 81.2453 203.26 74.5893 203.26 66.568C203.26 58.376 204.625 51.592 207.356 46.216C210.172 40.7547 214.055 36.6587 219.004 33.928C223.953 31.1973 229.713 29.832 236.284 29.832ZM236.412 43.4C232.743 43.4 229.671 44.5947 227.196 46.984C224.807 49.3733 223.399 53.0853 222.972 58.12H249.724C249.724 55.304 249.212 52.7867 248.188 50.568C247.249 48.3493 245.799 46.6 243.836 45.32C241.873 44.04 239.399 43.4 236.412 43.4ZM392.775 101H373.447V61.576H337.223V101H317.895V9.60799H337.223V45.448H373.447V9.60799H392.775V101ZM477.722 65.928C477.722 71.7307 476.911 76.8933 475.29 81.416C473.754 85.9387 471.493 89.7787 468.506 92.936C465.605 96.008 462.063 98.3547 457.882 99.976C453.701 101.512 448.965 102.28 443.674 102.28C438.81 102.28 434.287 101.512 430.106 99.976C426.01 98.3547 422.469 96.008 419.482 92.936C416.495 89.7787 414.149 85.9387 412.442 81.416C410.821 76.8933 410.01 71.7307 410.01 65.928C410.01 58.1627 411.375 51.6347 414.106 46.344C416.837 40.968 420.762 36.872 425.882 34.056C431.002 31.24 437.061 29.832 444.058 29.832C450.629 29.832 456.431 31.24 461.466 34.056C466.501 36.872 470.469 40.968 473.37 46.344C476.271 51.6347 477.722 58.1627 477.722 65.928ZM429.466 65.928C429.466 70.536 429.935 74.4187 430.874 77.576C431.898 80.648 433.477 82.9947 435.61 84.616C437.743 86.152 440.517 86.92 443.93 86.92C447.343 86.92 450.074 86.152 452.122 84.616C454.255 82.9947 455.791 80.648 456.73 77.576C457.754 74.4187 458.266 70.536 458.266 65.928C458.266 61.32 457.754 57.48 456.73 54.408C455.791 51.336 454.255 49.032 452.122 47.496C449.989 45.96 447.215 45.192 443.802 45.192C438.767 45.192 435.098 46.9413 432.794 50.44C430.575 53.8533 429.466 59.016 429.466 65.928ZM522.924 87.048C525.057 87.048 527.105 86.8347 529.068 86.408C531.031 85.9813 532.993 85.4693 534.956 84.872V99.08C532.908 99.9333 530.348 100.659 527.276 101.256C524.289 101.939 521.004 102.28 517.42 102.28C513.239 102.28 509.484 101.597 506.156 100.232C502.913 98.8667 500.311 96.52 498.348 93.192C496.471 89.7787 495.532 85.0853 495.532 79.112V45.448H486.444V37.384L496.94 30.984L502.444 16.264H514.604V31.112H534.188V45.448H514.604V79.112C514.604 81.7573 515.372 83.7627 516.908 85.128C518.444 86.408 520.449 87.048 522.924 87.048ZM577.784 29.832C584.269 29.832 589.816 31.0693 594.424 33.544C599.117 36.0187 602.744 39.6027 605.304 44.296C607.864 48.9893 609.144 54.7493 609.144 61.576V70.792H564.088C564.259 76.168 565.837 80.392 568.824 83.464C571.896 86.536 576.12 88.072 581.496 88.072C586.019 88.072 590.115 87.6453 593.784 86.792C597.453 85.8533 601.251 84.4453 605.176 82.568V97.288C601.763 98.9947 598.136 100.232 594.296 101C590.541 101.853 585.976 102.28 580.6 102.28C573.603 102.28 567.416 101 562.04 98.44C556.664 95.7947 552.44 91.8267 549.368 86.536C546.296 81.2453 544.76 74.5893 544.76 66.568C544.76 58.376 546.125 51.592 548.856 46.216C551.672 40.7547 555.555 36.6587 560.504 33.928C565.453 31.1973 571.213 29.832 577.784 29.832ZM577.912 43.4C574.243 43.4 571.171 44.5947 568.696 46.984C566.307 49.3733 564.899 53.0853 564.472 58.12H591.224C591.224 55.304 590.712 52.7867 589.688 50.568C588.749 48.3493 587.299 46.6 585.336 45.32C583.373 44.04 580.899 43.4 577.912 43.4ZM643.681 101H624.609V3.71999H643.681V101Z" fill="url(#paint0_linear_2_14)" shape-rendering="crispEdges"/>
</g>
<defs>
<filter id="filter0_d_2_14" x="0.720004" y="0.920001" width="649.761" height="112.16" filterUnits="userSpaceOnUse" color-interpolation-filters="sRGB">
<feFlood flood-opacity="0" result="BackgroundImageFix"/>
<feColorMatrix in="SourceAlpha" type="matrix" values="0 0 0 0 0 0 0 0 0 0 0 0 0 0 0 0 0 0 127 0" result="hardAlpha"/>
<feOffset dy="4"/>
<feGaussianBlur stdDeviation="3.4"/>
<feComposite in2="hardAlpha" operator="out"/>
<feColorMatrix type="matrix" values="0 0 0 0 0 0 0 0 0 0 0 0 0 0 0 0 0 0 0.25 0"/>
<feBlend mode="normal" in2="BackgroundImageFix" result="effect1_dropShadow_2_14"/>
<feBlend mode="normal" in="SourceGraphic" in2="effect1_dropShadow_2_14" result="shape"/>
</filter>
<linearGradient id="paint0_linear_2_14" x1="325" y1="-178.122" x2="325" y2="209.725" gradientUnits="userSpaceOnUse">
<stop stop-color="white" stop-opacity="0.3"/>
<stop offset="1" stop-color="white" stop-opacity="0.85"/>
</linearGradient>
</defs>
</svg>
