<svg width="828" height="143" viewBox="0 0 828 143" fill="none" xmlns="http://www.w3.org/2000/svg">
<g filter="url(#filter0_d_2_14)">
<path d="M7.52 101V9.60799H26.848V85H63.968V101H7.52ZM97.431 31.112V101H78.359V31.112H97.431ZM87.959 3.71999C90.775 3.71999 93.207 4.40266 95.255 5.768C97.303 7.048 98.327 9.48 98.327 13.064C98.327 16.5627 97.303 18.9947 95.255 20.36C93.207 21.7253 90.775 22.408 87.959 22.408C85.0577 22.408 82.583 21.7253 80.535 20.36C78.5723 18.9947 77.591 16.5627 77.591 13.064C77.591 9.48 78.5723 7.048 80.535 5.768C82.583 4.40266 85.0577 3.71999 87.959 3.71999ZM136.431 26.376C136.431 29.0213 136.346 31.624 136.175 34.184C136.004 36.744 135.834 38.7493 135.663 40.2H136.431C138.308 37.2987 140.826 34.8667 143.983 32.904C147.14 30.856 151.236 29.832 156.271 29.832C164.122 29.832 170.479 32.904 175.343 39.048C180.207 45.1067 182.639 54.0667 182.639 65.928C182.639 73.864 181.487 80.5627 179.183 86.024C176.964 91.4 173.85 95.4533 169.839 98.184C165.828 100.915 161.135 102.28 155.759 102.28C150.639 102.28 146.586 101.384 143.599 99.592C140.698 97.7147 138.308 95.624 136.431 93.32H135.151L131.951 101H117.359V3.71999H136.431V26.376ZM150.127 45.064C146.799 45.064 144.154 45.7467 142.191 47.112C140.228 48.4773 138.778 50.568 137.839 53.384C136.986 56.1147 136.516 59.5707 136.431 63.752V65.8C136.431 72.5413 137.412 77.7467 139.375 81.416C141.423 85 145.092 86.792 150.383 86.792C154.308 86.792 157.423 85 159.727 81.416C162.031 77.7467 163.183 72.4987 163.183 65.672C163.183 58.8453 161.988 53.7253 159.599 50.312C157.295 46.8133 154.138 45.064 150.127 45.064ZM227.159 29.832C233.644 29.832 239.191 31.0693 243.799 33.544C248.492 36.0187 252.119 39.6027 254.679 44.296C257.239 48.9893 258.519 54.7493 258.519 61.576V70.792H213.463C213.634 76.168 215.212 80.392 218.199 83.464C221.271 86.536 225.495 88.072 230.871 88.072C235.394 88.072 239.49 87.6453 243.159 86.792C246.828 85.8533 250.626 84.4453 254.551 82.568V97.288C251.138 98.9947 247.511 100.232 243.671 101C239.916 101.853 235.351 102.28 229.975 102.28C222.978 102.28 216.791 101 211.415 98.44C206.039 95.7947 201.815 91.8267 198.743 86.536C195.671 81.2453 194.135 74.5893 194.135 66.568C194.135 58.376 195.5 51.592 198.231 46.216C201.047 40.7547 204.93 36.6587 209.879 33.928C214.828 31.1973 220.588 29.832 227.159 29.832ZM227.287 43.4C223.618 43.4 220.546 44.5947 218.071 46.984C215.682 49.3733 214.274 53.0853 213.847 58.12H240.599C240.599 55.304 240.087 52.7867 239.063 50.568C238.124 48.3493 236.674 46.6 234.711 45.32C232.748 44.04 230.274 43.4 227.287 43.4ZM313.024 29.832C313.963 29.832 315.072 29.8747 316.352 29.96C317.632 30.0453 318.656 30.1733 319.424 30.344L318.016 48.264C317.419 48.0933 316.523 47.9653 315.328 47.88C314.219 47.7093 313.237 47.624 312.384 47.624C309.909 47.624 307.52 47.9653 305.216 48.648C302.912 49.2453 300.821 50.2267 298.944 51.592C297.152 52.9573 295.701 54.792 294.592 57.096C293.568 59.3147 293.056 62.088 293.056 65.416V101H273.984V31.112H288.448L291.264 42.888H292.16C293.525 40.4987 295.232 38.3227 297.28 36.36C299.328 34.3973 301.675 32.8187 304.32 31.624C307.051 30.4293 309.952 29.832 313.024 29.832ZM361.549 87.048C363.682 87.048 365.73 86.8347 367.693 86.408C369.656 85.9813 371.618 85.4693 373.581 84.872V99.08C371.533 99.9333 368.973 100.659 365.901 101.256C362.914 101.939 359.629 102.28 356.045 102.28C351.864 102.28 348.109 101.597 344.781 100.232C341.538 98.8667 338.936 96.52 336.973 93.192C335.096 89.7787 334.157 85.0853 334.157 79.112V45.448H325.069V37.384L335.565 30.984L341.069 16.264H353.229V31.112H372.813V45.448H353.229V79.112C353.229 81.7573 353.997 83.7627 355.533 85.128C357.069 86.408 359.074 87.048 361.549 87.048ZM377.625 31.112H398.489L411.673 70.408C412.1 71.688 412.441 72.968 412.697 74.248C413.038 75.528 413.294 76.8507 413.465 78.216C413.721 79.5813 413.892 81.032 413.977 82.568H414.361C414.617 80.3493 414.958 78.2587 415.385 76.296C415.897 74.248 416.452 72.2853 417.049 70.408L429.977 31.112H450.457L420.889 109.96C419.097 114.739 416.75 118.749 413.849 121.992C411.033 125.235 407.748 127.667 403.993 129.288C400.238 130.909 396.142 131.72 391.705 131.72C389.572 131.72 387.694 131.592 386.073 131.336C384.537 131.165 383.172 130.952 381.977 130.696V115.592C382.916 115.763 384.025 115.933 385.305 116.104C386.67 116.275 388.078 116.36 389.529 116.36C392.174 116.36 394.436 115.805 396.313 114.696C398.276 113.587 399.897 112.051 401.177 110.088C402.457 108.211 403.481 106.163 404.249 103.944L405.401 100.488L377.625 31.112ZM570.15 101H550.822V61.576H514.598V101H495.27V9.60799H514.598V45.448H550.822V9.60799H570.15V101ZM655.097 65.928C655.097 71.7307 654.286 76.8933 652.665 81.416C651.129 85.9387 648.868 89.7787 645.881 92.936C642.98 96.008 639.438 98.3547 635.257 99.976C631.076 101.512 626.34 102.28 621.049 102.28C616.185 102.28 611.662 101.512 607.481 99.976C603.385 98.3547 599.844 96.008 596.857 92.936C593.87 89.7787 591.524 85.9387 589.817 81.416C588.196 76.8933 587.385 71.7307 587.385 65.928C587.385 58.1627 588.75 51.6347 591.481 46.344C594.212 40.968 598.137 36.872 603.257 34.056C608.377 31.24 614.436 29.832 621.433 29.832C628.004 29.832 633.806 31.24 638.841 34.056C643.876 36.872 647.844 40.968 650.745 46.344C653.646 51.6347 655.097 58.1627 655.097 65.928ZM606.841 65.928C606.841 70.536 607.31 74.4187 608.249 77.576C609.273 80.648 610.852 82.9947 612.985 84.616C615.118 86.152 617.892 86.92 621.305 86.92C624.718 86.92 627.449 86.152 629.497 84.616C631.63 82.9947 633.166 80.648 634.105 77.576C635.129 74.4187 635.641 70.536 635.641 65.928C635.641 61.32 635.129 57.48 634.105 54.408C633.166 51.336 631.63 49.032 629.497 47.496C627.364 45.96 624.59 45.192 621.177 45.192C616.142 45.192 612.473 46.9413 610.169 50.44C607.95 53.8533 606.841 59.016 606.841 65.928ZM700.299 87.048C702.432 87.048 704.48 86.8347 706.443 86.408C708.406 85.9813 710.368 85.4693 712.331 84.872V99.08C710.283 99.9333 707.723 100.659 704.651 101.256C701.664 101.939 698.379 102.28 694.795 102.28C690.614 102.28 686.859 101.597 683.531 100.232C680.288 98.8667 677.686 96.52 675.723 93.192C673.846 89.7787 672.907 85.0853 672.907 79.112V45.448H663.819V37.384L674.315 30.984L679.819 16.264H691.979V31.112H711.563V45.448H691.979V79.112C691.979 81.7573 692.747 83.7627 694.283 85.128C695.819 86.408 697.824 87.048 700.299 87.048ZM755.159 29.832C761.644 29.832 767.191 31.0693 771.799 33.544C776.492 36.0187 780.119 39.6027 782.679 44.296C785.239 48.9893 786.519 54.7493 786.519 61.576V70.792H741.463C741.634 76.168 743.212 80.392 746.199 83.464C749.271 86.536 753.495 88.072 758.871 88.072C763.394 88.072 767.49 87.6453 771.159 86.792C774.828 85.8533 778.626 84.4453 782.551 82.568V97.288C779.138 98.9947 775.511 100.232 771.671 101C767.916 101.853 763.351 102.28 757.975 102.28C750.978 102.28 744.791 101 739.415 98.44C734.039 95.7947 729.815 91.8267 726.743 86.536C723.671 81.2453 722.135 74.5893 722.135 66.568C722.135 58.376 723.5 51.592 726.231 46.216C729.047 40.7547 732.93 36.6587 737.879 33.928C742.828 31.1973 748.588 29.832 755.159 29.832ZM755.287 43.4C751.618 43.4 748.546 44.5947 746.071 46.984C743.682 49.3733 742.274 53.0853 741.847 58.12H768.599C768.599 55.304 768.087 52.7867 767.063 50.568C766.124 48.3493 764.674 46.6 762.711 45.32C760.748 44.04 758.274 43.4 755.287 43.4ZM821.056 101H801.984V3.71999H821.056V101Z" fill="url(#paint0_linear_2_14)" shape-rendering="crispEdges"/>
</g>
<defs>
<filter id="filter0_d_2_14" x="0.720004" y="0.920001" width="827.136" height="141.6" filterUnits="userSpaceOnUse" color-interpolation-filters="sRGB">
<feFlood flood-opacity="0" result="BackgroundImageFix"/>
<feColorMatrix in="SourceAlpha" type="matrix" values="0 0 0 0 0 0 0 0 0 0 0 0 0 0 0 0 0 0 127 0" result="hardAlpha"/>
<feOffset dy="4"/>
<feGaussianBlur stdDeviation="3.4"/>
<feComposite in2="hardAlpha" operator="out"/>
<feColorMatrix type="matrix" values="0 0 0 0 0 0 0 0 0 0 0 0 0 0 0 0 0 0 0.25 0"/>
<feBlend mode="normal" in2="BackgroundImageFix" result="effect1_dropShadow_2_14"/>
<feBlend mode="normal" in="SourceGraphic" in2="effect1_dropShadow_2_14" result="shape"/>
</filter>
<linearGradient id="paint0_linear_2_14" x1="413.5" y1="-178.122" x2="413.5" y2="209.725" gradientUnits="userSpaceOnUse">
<stop stop-color="white" stop-opacity="0.3"/>
<stop offset="1" stop-color="white" stop-opacity="0.85"/>
</linearGradient>
</defs>
</svg>
