<svg xmlns="http://www.w3.org/2000/svg" xmlns:xlink="http://www.w3.org/1999/xlink" viewBox="0 0 212.76 213.43"><defs><style>.cls-1{fill:#fff;}.cls-2{fill:url(#未命名漸層_7);}.cls-3{fill:url(#未命名漸層_9);}.cls-4{fill:url(#未命名漸層_7-2);}.cls-5{fill:url(#未命名漸層_3);}.cls-6{fill:url(#未命名漸層_3-2);}.cls-7{fill:#53677d;}</style><linearGradient id="未命名漸層_7" x1="-5.56" y1="147.42" x2="124.98" y2="12.79" gradientUnits="userSpaceOnUse"><stop offset="0" stop-color="#9fa9b1"/><stop offset="1" stop-color="#394c5c"/></linearGradient><linearGradient id="未命名漸層_9" x1="148.09" y1="13.92" x2="183.87" y2="162.33" gradientUnits="userSpaceOnUse"><stop offset="0" stop-color="#f6d1be"/><stop offset="1" stop-color="#f7ba77"/></linearGradient><linearGradient id="未命名漸層_7-2" x1="249.09" y1="97.23" x2="60.19" y2="201.72" xlink:href="#未命名漸層_7"/><linearGradient id="未命名漸層_3" x1="67.12" y1="-3.14" x2="248" y2="147.3" gradientUnits="userSpaceOnUse"><stop offset="0" stop-color="#fff"/><stop offset="1" stop-color="#b3b3b3"/></linearGradient><linearGradient id="未命名漸層_3-2" x1="130.9" y1="237.8" x2="10.61" y2="47.09" xlink:href="#未命名漸層_3"/></defs><g id="圖層_2" data-name="圖層 2"><g id="圖層_1-2" data-name="圖層 1"><circle class="cls-1" cx="106.09" cy="107.09" r="106.09"/><path class="cls-2" d="M156.91,57S116.08,12.63,52,57c0,0-47.45,35.3-35.48,107.18,0,0-10.09-13.27-14.26-35.27C-3.08,100.76.17,59.82,34.61,29.34,34.61,29.34,99.84-3.62,156.91,57Z"/><path class="cls-3" d="M165.71,19.45S191,56.76,176.66,116.24c0,0-.43,32.92-35.12,53.12,0,0,62.37-22.25,64.3-98.5C205.84,70.86,196.45,37.31,165.71,19.45Z"/><path class="cls-4" d="M51.54,155.75s62,66.37,133.09-24.11c0,0,18.85-17.91,21.21-60.78,0,0,30.21,69.6-35.63,120.75C170.21,191.61,95.45,217.21,51.54,155.75Z"/><path class="cls-5" d="M34.61,29.34S95.26-29.26,165.5,19.17c0,0,23.29,28.58,13.5,88.29,0,0-5.15-47-45.89-70.49C133.11,37,92.75,4.35,34.61,29.34Z"/><path class="cls-6" d="M60.8,51.33s-51,39-9.26,104.42c0,0,37.4,58.79,118.39,36,0,0-37.79,30-86.37,19.51S16.5,164.15,16.5,164.15-2.38,90.47,60.8,51.33Z"/><path class="cls-7" d="M46,126.2V81.93h5.33v36.86H62.16v7.41Z"/><path class="cls-7" d="M69,102.77a3.11,3.11,0,0,1-2.23-.78,2.69,2.69,0,0,1-.83-2.1,2.73,2.73,0,0,1,.83-2.09,3.49,3.49,0,0,1,4.42,0,2.69,2.69,0,0,1,.87,2.09,2.65,2.65,0,0,1-.87,2.1A3.12,3.12,0,0,1,69,102.77ZM66.37,126.2V106h5.3V126.2Z"/><path class="cls-7" d="M87.43,126.71a5,5,0,0,1-2.73-.93,10.34,10.34,0,0,1-2.63-2.65h-.18L81.46,126H77.32V86.9h5.29v9.85l-.18,4.42a11.22,11.22,0,0,1,2.68-2.38,5.55,5.55,0,0,1,2.94-.91,5.89,5.89,0,0,1,4.26,1.74,11.27,11.27,0,0,1,2.74,4.86,25.27,25.27,0,0,1,1,7.33,23.78,23.78,0,0,1-1.22,8.06,12.31,12.31,0,0,1-3.19,5.1A6.19,6.19,0,0,1,87.43,126.71Zm-1.15-5.93a3,3,0,0,0,2.16-1A6.62,6.62,0,0,0,90,116.9a18,18,0,0,0,.58-5,19.43,19.43,0,0,0-.44-4.43,6,6,0,0,0-1.29-2.77,3,3,0,0,0-2.27-.94,3.3,3.3,0,0,0-2,.69,9.55,9.55,0,0,0-2,2.11v12.11a5.5,5.5,0,0,0,1.89,1.62A4.34,4.34,0,0,0,86.28,120.78Z"/><path class="cls-7" d="M109.29,126.71a10.26,10.26,0,0,1-5.08-1.26,9.32,9.32,0,0,1-3.62-3.64,11.33,11.33,0,0,1-1.35-5.69,11.72,11.72,0,0,1,.78-4.39,10,10,0,0,1,2.12-3.33,9.69,9.69,0,0,1,3-2.12,8.6,8.6,0,0,1,3.48-.74,8.19,8.19,0,0,1,4.64,1.24,7.75,7.75,0,0,1,2.83,3.42,12.44,12.44,0,0,1,1,5,12.25,12.25,0,0,1-.07,1.38,7.81,7.81,0,0,1-.18,1.07H104.39a6.24,6.24,0,0,0,1,2.73,4.79,4.79,0,0,0,2,1.68,6.29,6.29,0,0,0,2.7.55,7.53,7.53,0,0,0,2.3-.34,10.5,10.5,0,0,0,2.2-1l1.8,3.24A13.48,13.48,0,0,1,113,126.1,11.85,11.85,0,0,1,109.29,126.71Zm-5-12.64h8.25a5.19,5.19,0,0,0-.92-3.22,3.42,3.42,0,0,0-2.9-1.21,4.27,4.27,0,0,0-2,.49,4.13,4.13,0,0,0-1.58,1.48A6,6,0,0,0,104.28,114.07Z"/><path class="cls-7" d="M121.42,133.88V106.23h4.32l.39,4.89h.11a12,12,0,0,1,2.63-4.15,4.54,4.54,0,0,1,3.1-1.43,4.7,4.7,0,0,1,1.38.17,6,6,0,0,1,1,.42l-.87,6.27c-.38-.13-.72-.24-1-.32a4.52,4.52,0,0,0-1.14-.12,3.64,3.64,0,0,0-2.43,1.23,9.66,9.66,0,0,0-2.14,4.2v16.49Z"/><path class="cls-7" d="M144.53,126.71a5.46,5.46,0,0,1-3.85-1.35,7.54,7.54,0,0,1-2.13-3.74,21.33,21.33,0,0,1-.65-5.54V103.41h-2.84V97.87l3.13-.36.61-7.68h4.36v7.68h5v5.9h-5V116a7.08,7.08,0,0,0,.72,3.61,2.28,2.28,0,0,0,2.05,1.17,2.89,2.89,0,0,0,1-.21,8.61,8.61,0,0,0,.93-.4l.9,5.44c-.55.24-1.18.47-1.89.71A7.36,7.36,0,0,1,144.53,126.71Z"/><path class="cls-7" d="M154.91,134.27a14.26,14.26,0,0,1-1.87-.11,12.34,12.34,0,0,1-1.47-.29l1.17-4,.8.16a5.22,5.22,0,0,0,3.84-.77A5.23,5.23,0,0,0,159,127l.43-1.22L150,106h6.42l3.86,9.36c.38.92.73,1.85,1,2.81s.65,1.92,1,2.88h.22c.26-1,.54-1.91.85-2.86s.6-1.89.89-2.83l3.34-9.36h6.11l-8.63,20.78a17.82,17.82,0,0,1-2.39,4.05,8.88,8.88,0,0,1-3.18,2.53A10.72,10.72,0,0,1,154.91,134.27Z"/></g></g></svg>