<svg width="25" height="25" viewBox="0 0 25 25" fill="none" xmlns="http://www.w3.org/2000/svg">
<mask id="mask0_46_254" style="mask-type:alpha" maskUnits="userSpaceOnUse" x="0" y="0" width="25" height="25">
<rect x="0.895203" y="0.166748" width="24" height="24" fill="#D9D9D9"/>
</mask>
<g mask="url(#mask0_46_254)">
<path d="M6.8952 20.1667C6.3452 20.1667 5.87437 19.9709 5.4827 19.5792C5.09104 19.1876 4.8952 18.7167 4.8952 18.1667C4.8952 17.6167 5.09104 17.1459 5.4827 16.7542C5.87437 16.3626 6.3452 16.1667 6.8952 16.1667C7.4452 16.1667 7.91604 16.3626 8.3077 16.7542C8.69937 17.1459 8.8952 17.6167 8.8952 18.1667C8.8952 18.7167 8.69937 19.1876 8.3077 19.5792C7.91604 19.9709 7.4452 20.1667 6.8952 20.1667ZM12.8952 20.1667C12.3452 20.1667 11.8744 19.9709 11.4827 19.5792C11.091 19.1876 10.8952 18.7167 10.8952 18.1667C10.8952 17.6167 11.091 17.1459 11.4827 16.7542C11.8744 16.3626 12.3452 16.1667 12.8952 16.1667C13.4452 16.1667 13.916 16.3626 14.3077 16.7542C14.6994 17.1459 14.8952 17.6167 14.8952 18.1667C14.8952 18.7167 14.6994 19.1876 14.3077 19.5792C13.916 19.9709 13.4452 20.1667 12.8952 20.1667ZM18.8952 20.1667C18.3452 20.1667 17.8744 19.9709 17.4827 19.5792C17.091 19.1876 16.8952 18.7167 16.8952 18.1667C16.8952 17.6167 17.091 17.1459 17.4827 16.7542C17.8744 16.3626 18.3452 16.1667 18.8952 16.1667C19.4452 16.1667 19.916 16.3626 20.3077 16.7542C20.6994 17.1459 20.8952 17.6167 20.8952 18.1667C20.8952 18.7167 20.6994 19.1876 20.3077 19.5792C19.916 19.9709 19.4452 20.1667 18.8952 20.1667ZM6.8952 14.1667C6.3452 14.1667 5.87437 13.9709 5.4827 13.5792C5.09104 13.1876 4.8952 12.7167 4.8952 12.1667C4.8952 11.6167 5.09104 11.1459 5.4827 10.7542C5.87437 10.3626 6.3452 10.1667 6.8952 10.1667C7.4452 10.1667 7.91604 10.3626 8.3077 10.7542C8.69937 11.1459 8.8952 11.6167 8.8952 12.1667C8.8952 12.7167 8.69937 13.1876 8.3077 13.5792C7.91604 13.9709 7.4452 14.1667 6.8952 14.1667ZM12.8952 14.1667C12.3452 14.1667 11.8744 13.9709 11.4827 13.5792C11.091 13.1876 10.8952 12.7167 10.8952 12.1667C10.8952 11.6167 11.091 11.1459 11.4827 10.7542C11.8744 10.3626 12.3452 10.1667 12.8952 10.1667C13.4452 10.1667 13.916 10.3626 14.3077 10.7542C14.6994 11.1459 14.8952 11.6167 14.8952 12.1667C14.8952 12.7167 14.6994 13.1876 14.3077 13.5792C13.916 13.9709 13.4452 14.1667 12.8952 14.1667ZM18.8952 14.1667C18.3452 14.1667 17.8744 13.9709 17.4827 13.5792C17.091 13.1876 16.8952 12.7167 16.8952 12.1667C16.8952 11.6167 17.091 11.1459 17.4827 10.7542C17.8744 10.3626 18.3452 10.1667 18.8952 10.1667C19.4452 10.1667 19.916 10.3626 20.3077 10.7542C20.6994 11.1459 20.8952 11.6167 20.8952 12.1667C20.8952 12.7167 20.6994 13.1876 20.3077 13.5792C19.916 13.9709 19.4452 14.1667 18.8952 14.1667ZM6.8952 8.16675C6.3452 8.16675 5.87437 7.97091 5.4827 7.57925C5.09104 7.18758 4.8952 6.71675 4.8952 6.16675C4.8952 5.61675 5.09104 5.14591 5.4827 4.75425C5.87437 4.36258 6.3452 4.16675 6.8952 4.16675C7.4452 4.16675 7.91604 4.36258 8.3077 4.75425C8.69937 5.14591 8.8952 5.61675 8.8952 6.16675C8.8952 6.71675 8.69937 7.18758 8.3077 7.57925C7.91604 7.97091 7.4452 8.16675 6.8952 8.16675ZM12.8952 8.16675C12.3452 8.16675 11.8744 7.97091 11.4827 7.57925C11.091 7.18758 10.8952 6.71675 10.8952 6.16675C10.8952 5.61675 11.091 5.14591 11.4827 4.75425C11.8744 4.36258 12.3452 4.16675 12.8952 4.16675C13.4452 4.16675 13.916 4.36258 14.3077 4.75425C14.6994 5.14591 14.8952 5.61675 14.8952 6.16675C14.8952 6.71675 14.6994 7.18758 14.3077 7.57925C13.916 7.97091 13.4452 8.16675 12.8952 8.16675ZM18.8952 8.16675C18.3452 8.16675 17.8744 7.97091 17.4827 7.57925C17.091 7.18758 16.8952 6.71675 16.8952 6.16675C16.8952 5.61675 17.091 5.14591 17.4827 4.75425C17.8744 4.36258 18.3452 4.16675 18.8952 4.16675C19.4452 4.16675 19.916 4.36258 20.3077 4.75425C20.6994 5.14591 20.8952 5.61675 20.8952 6.16675C20.8952 6.71675 20.6994 7.18758 20.3077 7.57925C19.916 7.97091 19.4452 8.16675 18.8952 8.16675Z" fill="#1C1B1F"/>
</g>
</svg>
