<svg width="175" height="28" viewBox="0 0 175 28" fill="none" xmlns="http://www.w3.org/2000/svg">
<g filter="url(#filter0_d_2_66)">
<path d="M1.89481 4.56H22.9188V6.288H1.89481V4.56ZM9.33481 12.168H21.9828V13.848H9.33481V12.168ZM8.37481 20.664H22.8948V22.344H8.37481V20.664ZM14.7348 7.536H16.5348V21.576H14.7348V7.536ZM9.76681 0.839999L11.6388 1.296C11.0788 3.12 10.3668 4.928 9.50281 6.72C8.65481 8.512 7.63081 10.192 6.43081 11.76C5.23081 13.312 3.83081 14.656 2.23081 15.792C2.16681 15.632 2.07881 15.456 1.96681 15.264C1.85481 15.056 1.73481 14.856 1.60681 14.664C1.49481 14.456 1.39081 14.28 1.29481 14.136C2.38281 13.384 3.36681 12.504 4.24681 11.496C5.14281 10.472 5.94281 9.376 6.64681 8.208C7.35081 7.024 7.95881 5.808 8.47081 4.56C8.99881 3.312 9.43081 2.072 9.76681 0.839999ZM5.01481 10.728H6.81481V22.824H5.01481V10.728ZM30.4068 12V19.032H28.6548V13.68H25.4868V12H30.4068ZM30.4068 18.048C30.9988 18.928 31.8148 19.584 32.8548 20.016C33.8948 20.448 35.1108 20.696 36.5028 20.76C37.1748 20.776 37.9828 20.792 38.9268 20.808C39.8868 20.808 40.8868 20.8 41.9268 20.784C42.9828 20.768 43.9988 20.744 44.9748 20.712C45.9508 20.68 46.7988 20.64 47.5188 20.592C47.4548 20.736 47.3828 20.912 47.3028 21.12C47.2228 21.344 47.1428 21.568 47.0628 21.792C46.9988 22.016 46.9508 22.216 46.9188 22.392C46.2628 22.424 45.4788 22.448 44.5668 22.464C43.6548 22.496 42.7108 22.512 41.7348 22.512C40.7588 22.528 39.8148 22.528 38.9028 22.512C37.9908 22.512 37.1988 22.496 36.5268 22.464C34.9428 22.4 33.5908 22.144 32.4708 21.696C31.3508 21.248 30.4068 20.552 29.6388 19.608C29.0788 20.12 28.5108 20.632 27.9348 21.144C27.3588 21.672 26.7508 22.2 26.1108 22.728L25.1748 20.928C25.7348 20.544 26.3348 20.104 26.9748 19.608C27.6148 19.096 28.2228 18.576 28.7988 18.048H30.4068ZM26.5428 2.256L27.7428 1.128C28.2228 1.384 28.7188 1.68 29.2308 2.016C29.7428 2.352 30.2148 2.696 30.6468 3.048C31.0948 3.384 31.4548 3.712 31.7268 4.032L30.4548 5.256C30.1988 4.936 29.8548 4.6 29.4228 4.248C28.9908 3.88 28.5188 3.528 28.0068 3.192C27.5108 2.84 27.0228 2.528 26.5428 2.256ZM25.6068 7.128L26.7828 5.952C27.2948 6.192 27.8148 6.472 28.3428 6.792C28.8708 7.096 29.3748 7.416 29.8548 7.752C30.3348 8.088 30.7188 8.416 31.0068 8.736L29.7588 10.032C29.4868 9.712 29.1188 9.376 28.6548 9.024C28.1908 8.672 27.6948 8.336 27.1668 8.016C26.6388 7.68 26.1188 7.384 25.6068 7.128ZM31.8228 4.848H47.3748V6.192H31.8228V4.848ZM33.6708 10.584H45.6948V11.88H33.6708V10.584ZM33.6708 7.728H45.6948V9.024H33.6708V7.728ZM34.0068 1.968H45.4068V3.24H34.0068V1.968ZM35.2548 14.784V17.64H44.0628V14.784H35.2548ZM33.5988 13.488H45.7668V18.96H33.5988V13.488ZM57.0948 20.52H71.4708V22.176H57.0948V20.52ZM58.5348 15.264H70.6788V16.92H58.5348V15.264ZM63.7188 2.64H65.4228V21.672H63.7188V2.64ZM60.3348 8.016V10.896H68.8308V8.016H60.3348ZM60.3348 3.648V6.504H68.8308V3.648H60.3348ZM58.6788 2.064H70.5828V12.504H58.6788V2.064ZM52.8708 12.6L54.5748 10.56V22.92H52.8708V12.6ZM49.6788 5.328H56.4948V6.96H49.6788V5.328ZM52.7988 0.959999H54.5028V6.264H52.7988V0.959999ZM54.3828 10.896C54.5588 11.056 54.8148 11.336 55.1508 11.736C55.5028 12.12 55.8788 12.544 56.2788 13.008C56.6788 13.472 57.0388 13.904 57.3588 14.304C57.6948 14.688 57.9348 14.968 58.0788 15.144L56.9748 16.392C56.7988 16.104 56.5588 15.744 56.2548 15.312C55.9508 14.88 55.6148 14.424 55.2468 13.944C54.8948 13.464 54.5508 13.024 54.2148 12.624C53.8948 12.208 53.6388 11.888 53.4468 11.664L54.3828 10.896ZM55.8948 5.328H56.2548L56.5668 5.256L57.5508 5.88C57.0388 7.352 56.3668 8.784 55.5348 10.176C54.7188 11.552 53.8228 12.816 52.8468 13.968C51.8868 15.12 50.9188 16.096 49.9428 16.896C49.8788 16.736 49.7908 16.56 49.6788 16.368C49.5668 16.16 49.4468 15.96 49.3188 15.768C49.2068 15.576 49.1028 15.432 49.0068 15.336C49.9348 14.632 50.8468 13.768 51.7428 12.744C52.6388 11.704 53.4548 10.576 54.1908 9.36C54.9268 8.144 55.4948 6.928 55.8948 5.712V5.328ZM57.3828 9.864L58.5108 10.68C58.1428 11.192 57.7508 11.712 57.3348 12.24C56.9188 12.768 56.5348 13.224 56.1828 13.608L55.2708 12.912C55.4948 12.64 55.7348 12.328 55.9908 11.976C56.2628 11.608 56.5188 11.24 56.7588 10.872C57.0148 10.488 57.2228 10.152 57.3828 9.864ZM83.7532 9.432H97.6972V11.136H83.7532V9.432ZM83.7532 14.664H97.6972V16.344H83.7532V14.664ZM83.7532 19.896H97.6972V21.6H83.7532V19.896ZM82.5292 4.128H99.0892V22.824H97.1932V5.856H84.3532V22.944H82.5292V4.128ZM89.5372 0.791998L91.6252 1.08C91.3692 1.8 91.0892 2.52 90.7852 3.24C90.4972 3.96 90.2172 4.584 89.9452 5.112L88.3372 4.8C88.4972 4.416 88.6492 3.992 88.7932 3.528C88.9532 3.048 89.0972 2.576 89.2252 2.112C89.3692 1.632 89.4732 1.192 89.5372 0.791998ZM106.217 12.528H122.945V14.304H106.217V12.528ZM106.217 19.632H122.897V21.432H106.217V19.632ZM105.353 5.496H123.929V22.824H122.057V7.296H107.153V22.92H105.353V5.496ZM113.633 0.839999H115.457V20.592H113.633V0.839999ZM131.753 9.432H145.697V11.136H131.753V9.432ZM131.753 14.664H145.697V16.344H131.753V14.664ZM131.753 19.896H145.697V21.6H131.753V19.896ZM130.529 4.128H147.089V22.824H145.193V5.856H132.353V22.944H130.529V4.128ZM137.537 0.791998L139.625 1.08C139.369 1.8 139.089 2.52 138.785 3.24C138.497 3.96 138.217 4.584 137.945 5.112L136.337 4.8C136.497 4.416 136.649 3.992 136.793 3.528C136.953 3.048 137.097 2.576 137.225 2.112C137.369 1.632 137.473 1.192 137.537 0.791998ZM152.129 4.56H173.153V6.288H152.129V4.56ZM159.569 12.168H172.217V13.848H159.569V12.168ZM158.609 20.664H173.129V22.344H158.609V20.664ZM164.969 7.536H166.769V21.576H164.969V7.536ZM160.001 0.839999L161.873 1.296C161.313 3.12 160.601 4.928 159.737 6.72C158.889 8.512 157.865 10.192 156.665 11.76C155.465 13.312 154.065 14.656 152.465 15.792C152.401 15.632 152.313 15.456 152.201 15.264C152.089 15.056 151.969 14.856 151.841 14.664C151.729 14.456 151.625 14.28 151.529 14.136C152.617 13.384 153.601 12.504 154.481 11.496C155.377 10.472 156.177 9.376 156.881 8.208C157.585 7.024 158.193 5.808 158.705 4.56C159.233 3.312 159.665 2.072 160.001 0.839999ZM155.249 10.728H157.049V22.824H155.249V10.728Z" fill="white"/>
</g>
<defs>
<filter id="filter0_d_2_66" x="-0.00520015" y="0.791992" width="174.458" height="26.452" filterUnits="userSpaceOnUse" color-interpolation-filters="sRGB">
<feFlood flood-opacity="0" result="BackgroundImageFix"/>
<feColorMatrix in="SourceAlpha" type="matrix" values="0 0 0 0 0 0 0 0 0 0 0 0 0 0 0 0 0 0 127 0" result="hardAlpha"/>
<feOffset dy="3"/>
<feGaussianBlur stdDeviation="0.65"/>
<feComposite in2="hardAlpha" operator="out"/>
<feColorMatrix type="matrix" values="0 0 0 0 0 0 0 0 0 0 0 0 0 0 0 0 0 0 0.25 0"/>
<feBlend mode="normal" in2="BackgroundImageFix" result="effect1_dropShadow_2_66"/>
<feBlend mode="normal" in="SourceGraphic" in2="effect1_dropShadow_2_66" result="shape"/>
</filter>
</defs>
</svg>
